<?xml version="1.0" encoding="UTF-8"?>
<svg id="Layer_1" data-name="Layer 1" xmlns="http://www.w3.org/2000/svg" viewBox="0 0 141.34 167.82">
  <defs>
    <style>
      .cls-1 {
        fill: red;
      }
    </style>
  </defs>
  <path class="cls-1" d="m125.69,165.3L1.54,13.88C-.86,10.96-.41,6.66,2.54,4.29l3.43-2.76c2.95-2.37,7.28-1.93,9.68.99l124.15,151.42c2.4,2.92,1.95,7.22-1,9.59l-3.43,2.76c-2.95,2.37-7.28,1.93-9.68-.99Z"/>
  <path class="cls-1" d="m125.69,2.52L1.54,153.94c-2.4,2.92-1.95,7.22,1,9.59l3.43,2.76c2.95,2.37,7.28,1.93,9.68-.99L139.8,13.88c2.4-2.92,1.95-7.22-1-9.59l-3.43-2.76c-2.95-2.37-7.28-1.93-9.68.99Z"/>
</svg>