<?xml version="1.0" encoding="UTF-8"?>
<svg id="Layer_1" data-name="Layer 1" xmlns="http://www.w3.org/2000/svg" xmlns:xlink="http://www.w3.org/1999/xlink" viewBox="0 0 3187.7 2023.27">
  <defs>
    <style>
      .cls-1 {
        clip-path: url(#clippath);
      }

      .cls-2 {
        fill: none;
      }

      .cls-3 {
        fill: #fcc45c;
      }

      .cls-4 {
        fill: red;
      }
    </style>
    <clipPath id="clippath">
      <rect class="cls-2" width="86" height="82.95"/>
    </clipPath>
  </defs>
  <rect class="cls-4" x="3016.28" y="1912.34" width="171.43" height="34.29"/>
  <rect class="cls-4" x="3016.28" y="1988.99" width="171.43" height="34.29"/>
  <g id="Group_14" data-name="Group 14">
    <g class="cls-1">
      <g id="Group_8" data-name="Group 8">
        <path id="Path_3" data-name="Path 3" class="cls-3" d="m84.42,12.4c-4.2-4.07-6.66-3.27-15.14-5.26s-10.3-1.43-10.3-1.43c-1.59-2.16-3.94-3.63-6.58-4.12-4.75-1.11-6.49-1.98-10.06-1.43-5.23.83-10.11,3.17-14.02,6.74-4.75,4.44-6.74,5.47-9.51,13.71s-4.6,19.17-5.7,21.55-1.19,4.67-5.79,8.79-6.5,4.99-6.5,4.99l-.82.47s9.32,16.55,28.03,23.5,36.86-.29,36.86-.29l.03-.99s2-8.99-1.5-17.23-4.99-11.61-5.62-14.98c-.76-4.38-.76-8.86,0-13.23.87-4.99,1.19-5.75,2.61-8.4,1.38-2.3,3.34-4.2,5.69-5.49l1.97-1.22s9.35.14,15.05-3.59c0,0,5.49,1.97,1.29-2.1m-36,4.15c-2.44.1-4.15-2.63-4.15-2.63.47-1.14,1.51-1.95,2.73-2.14,1.5-.16,3,.34,4.1,1.37,0,0-.24,3.32-2.68,3.41"/>
      </g>
    </g>
  </g>
</svg>